<mxfile host="Electron" modified="2024-05-09T04:56:37.436Z" agent="Mozilla/5.0 (X11; Linux x86_64) AppleWebKit/537.36 (KHTML, like Gecko) draw.io/24.2.5 Chrome/120.0.6099.109 Electron/28.1.0 Safari/537.36" etag="DBigKIH8erW3T63pi6kZ" version="24.2.5" type="device">
  <diagram name="Page-1" id="y63bMe_YJlejWHdC6VuL">
    <mxGraphModel dx="787" dy="482" grid="0" gridSize="10" guides="1" tooltips="1" connect="1" arrows="1" fold="1" page="1" pageScale="1" pageWidth="1169" pageHeight="827" background="#595959" math="0" shadow="1">
      <root>
        <mxCell id="0" />
        <mxCell id="1" parent="0" />
        <mxCell id="48cEqnXPvh0Omz0v4jSy-29" value="" style="rounded=1;whiteSpace=wrap;html=1;strokeWidth=0.2;arcSize=4;dashed=1;fixDash=1;portConstraintRotation=0;allowArrows=1;container=0;collapsible=0;rotatable=1;treeFolding=0;treeMoving=0;enumerate=0;" parent="1" vertex="1">
          <mxGeometry x="422" y="259" width="379" height="122" as="geometry" />
        </mxCell>
        <mxCell id="48cEqnXPvh0Omz0v4jSy-4" value="" style="group;fillStyle=solid;" parent="1" vertex="1" connectable="0">
          <mxGeometry x="288" y="195" width="75.98000000000002" height="82.5" as="geometry" />
        </mxCell>
        <mxCell id="48cEqnXPvh0Omz0v4jSy-2" value="&lt;br&gt;&lt;br&gt;&lt;br&gt;&lt;br&gt;&lt;br&gt;Merchant&lt;br&gt;Customer" style="rounded=1;whiteSpace=wrap;html=1;fontSize=8;strokeWidth=0.1;imageWidth=24;arcSize=4;shadow=0;glass=0;" parent="48cEqnXPvh0Omz0v4jSy-4" vertex="1">
          <mxGeometry width="75.98" height="82.5" as="geometry" />
        </mxCell>
        <mxCell id="xJpj-T-V7SrNM7Lm3HIL-23" value="" style="aspect=fixed;sketch=0;html=1;dashed=0;whitespace=wrap;fillColor=#2875E2;strokeColor=#ffffff;points=[[0.005,0.63,0],[0.1,0.2,0],[0.9,0.2,0],[0.5,0,0],[0.995,0.63,0],[0.72,0.99,0],[0.5,1,0],[0.28,0.99,0]];shape=mxgraph.kubernetes.icon2;prIcon=user;hachureGap=4;jiggle=2;curveFitting=1;fontFamily=Architects Daughter;fontSource=https%3A%2F%2Ffonts.googleapis.com%2Fcss%3Ffamily%3DArchitects%2BDaughter;" vertex="1" parent="48cEqnXPvh0Omz0v4jSy-4">
          <mxGeometry x="26.25999999999999" y="11" width="27" height="25.92" as="geometry" />
        </mxCell>
        <mxCell id="48cEqnXPvh0Omz0v4jSy-7" value="" style="group;" parent="1" vertex="1" connectable="0">
          <mxGeometry x="295" y="349" width="75.98000000000002" height="82.5" as="geometry" />
        </mxCell>
        <mxCell id="48cEqnXPvh0Omz0v4jSy-5" value="&lt;br&gt;&lt;br&gt;&lt;br&gt;&lt;br&gt;&lt;br&gt;Personal&lt;br&gt;Customer" style="rounded=1;whiteSpace=wrap;html=1;fontSize=8;strokeWidth=0.1;imageWidth=24;arcSize=4;" parent="48cEqnXPvh0Omz0v4jSy-7" vertex="1">
          <mxGeometry width="75.98" height="82.5" as="geometry" />
        </mxCell>
        <mxCell id="xJpj-T-V7SrNM7Lm3HIL-24" value="" style="aspect=fixed;sketch=0;html=1;dashed=0;whitespace=wrap;fillColor=#2875E2;strokeColor=#ffffff;points=[[0.005,0.63,0],[0.1,0.2,0],[0.9,0.2,0],[0.5,0,0],[0.995,0.63,0],[0.72,0.99,0],[0.5,1,0],[0.28,0.99,0]];shape=mxgraph.kubernetes.icon2;prIcon=user;hachureGap=4;jiggle=2;curveFitting=1;fontFamily=Architects Daughter;fontSource=https%3A%2F%2Ffonts.googleapis.com%2Fcss%3Ffamily%3DArchitects%2BDaughter;" vertex="1" parent="48cEqnXPvh0Omz0v4jSy-7">
          <mxGeometry x="24.49000000000001" y="13.039999999999964" width="27" height="25.92" as="geometry" />
        </mxCell>
        <mxCell id="48cEqnXPvh0Omz0v4jSy-11" value="" style="group;" parent="1" vertex="1" connectable="0">
          <mxGeometry x="665" y="124" width="84" height="92.56" as="geometry" />
        </mxCell>
        <mxCell id="48cEqnXPvh0Omz0v4jSy-12" value="&lt;br style=&quot;font-size: 9px;&quot;&gt;&lt;br style=&quot;font-size: 9px;&quot;&gt;&lt;br style=&quot;font-size: 9px;&quot;&gt;&lt;br&gt;Paystack&lt;br&gt;API Service" style="rounded=1;whiteSpace=wrap;html=1;fontSize=9;strokeWidth=0.5;glass=0;arcSize=4;" parent="48cEqnXPvh0Omz0v4jSy-11" vertex="1">
          <mxGeometry width="84" height="92.56" as="geometry" />
        </mxCell>
        <mxCell id="xJpj-T-V7SrNM7Lm3HIL-19" value="" style="aspect=fixed;sketch=0;html=1;dashed=0;whitespace=wrap;fillColor=#2875E2;strokeColor=#ffffff;points=[[0.005,0.63,0],[0.1,0.2,0],[0.9,0.2,0],[0.5,0,0],[0.995,0.63,0],[0.72,0.99,0],[0.5,1,0],[0.28,0.99,0]];shape=mxgraph.kubernetes.icon2;prIcon=api;hachureGap=4;jiggle=2;curveFitting=1;fontFamily=Architects Daughter;fontSource=https%3A%2F%2Ffonts.googleapis.com%2Fcss%3Ffamily%3DArchitects%2BDaughter;" vertex="1" parent="48cEqnXPvh0Omz0v4jSy-11">
          <mxGeometry x="26.809999999999945" y="14" width="34.37" height="33" as="geometry" />
        </mxCell>
        <mxCell id="48cEqnXPvh0Omz0v4jSy-14" value="" style="group;" parent="1" vertex="1" connectable="0">
          <mxGeometry x="667" y="430" width="84" height="92.56" as="geometry" />
        </mxCell>
        <mxCell id="48cEqnXPvh0Omz0v4jSy-15" value="&lt;br style=&quot;font-size: 9px;&quot;&gt;&lt;br style=&quot;font-size: 9px;&quot;&gt;&lt;br style=&quot;font-size: 9px;&quot;&gt;&lt;br&gt;Bank Payment&lt;br&gt;Gateway API Service" style="rounded=1;whiteSpace=wrap;html=1;fontSize=9;strokeWidth=0.5;glass=0;arcSize=4;" parent="48cEqnXPvh0Omz0v4jSy-14" vertex="1">
          <mxGeometry width="84" height="92.56" as="geometry" />
        </mxCell>
        <mxCell id="xJpj-T-V7SrNM7Lm3HIL-17" value="" style="aspect=fixed;sketch=0;html=1;dashed=0;whitespace=wrap;fillColor=#2875E2;strokeColor=#ffffff;points=[[0.005,0.63,0],[0.1,0.2,0],[0.9,0.2,0],[0.5,0,0],[0.995,0.63,0],[0.72,0.99,0],[0.5,1,0],[0.28,0.99,0]];shape=mxgraph.kubernetes.icon2;prIcon=api;hachureGap=4;jiggle=2;curveFitting=1;fontFamily=Architects Daughter;fontSource=https%3A%2F%2Ffonts.googleapis.com%2Fcss%3Ffamily%3DArchitects%2BDaughter;" vertex="1" parent="48cEqnXPvh0Omz0v4jSy-14">
          <mxGeometry x="24.809999999999945" y="11" width="34.37" height="33" as="geometry" />
        </mxCell>
        <mxCell id="48cEqnXPvh0Omz0v4jSy-18" value="" style="group;" parent="1" vertex="1" connectable="0">
          <mxGeometry x="573" y="275" width="84" height="92.56" as="geometry" />
        </mxCell>
        <mxCell id="48cEqnXPvh0Omz0v4jSy-19" value="&lt;br style=&quot;font-size: 9px;&quot;&gt;&lt;br style=&quot;font-size: 9px;&quot;&gt;&lt;br style=&quot;font-size: 9px;&quot;&gt;&lt;br&gt;Snapay&lt;br&gt;API Service" style="rounded=1;whiteSpace=wrap;html=1;fontSize=9;strokeWidth=0.5;glass=0;arcSize=4;" parent="48cEqnXPvh0Omz0v4jSy-18" vertex="1">
          <mxGeometry width="84" height="92.56" as="geometry" />
        </mxCell>
        <mxCell id="xJpj-T-V7SrNM7Lm3HIL-3" value="" style="sketch=0;points=[[0,0,0],[0.25,0,0],[0.5,0,0],[0.75,0,0],[1,0,0],[0,1,0],[0.25,1,0],[0.5,1,0],[0.75,1,0],[1,1,0],[0,0.25,0],[0,0.5,0],[0,0.75,0],[1,0.25,0],[1,0.5,0],[1,0.75,0]];outlineConnect=0;fontColor=#232F3E;fillColor=#ED7100;strokeColor=#ffffff;dashed=0;verticalLabelPosition=bottom;verticalAlign=top;align=center;html=1;fontSize=12;fontStyle=0;aspect=fixed;shape=mxgraph.aws4.resourceIcon;resIcon=mxgraph.aws4.ec2;hachureGap=4;jiggle=2;curveFitting=1;fontFamily=Architects Daughter;fontSource=https%3A%2F%2Ffonts.googleapis.com%2Fcss%3Ffamily%3DArchitects%2BDaughter;" vertex="1" parent="48cEqnXPvh0Omz0v4jSy-18">
          <mxGeometry x="24.5" y="13.5" width="35" height="35" as="geometry" />
        </mxCell>
        <mxCell id="48cEqnXPvh0Omz0v4jSy-21" value="" style="group;" parent="1" vertex="1" connectable="0">
          <mxGeometry x="439" y="275" width="84" height="92.56" as="geometry" />
        </mxCell>
        <mxCell id="48cEqnXPvh0Omz0v4jSy-22" value="&lt;br style=&quot;font-size: 9px;&quot;&gt;&lt;br style=&quot;font-size: 9px;&quot;&gt;&lt;br style=&quot;font-size: 9px;&quot;&gt;&lt;br&gt;Snapay&lt;br&gt;Mobile App" style="rounded=1;whiteSpace=wrap;html=1;fontSize=9;strokeWidth=0.5;glass=0;arcSize=4;" parent="48cEqnXPvh0Omz0v4jSy-21" vertex="1">
          <mxGeometry width="84" height="92.56" as="geometry" />
        </mxCell>
        <mxCell id="48cEqnXPvh0Omz0v4jSy-26" value="" style="image;sketch=0;aspect=fixed;html=1;points=[];align=center;fontSize=12;image=img/lib/mscae/App_Service_Mobile_App.svg;" parent="48cEqnXPvh0Omz0v4jSy-21" vertex="1">
          <mxGeometry x="32" y="19.78000000000003" width="20" height="29.41" as="geometry" />
        </mxCell>
        <mxCell id="48cEqnXPvh0Omz0v4jSy-27" style="edgeStyle=orthogonalEdgeStyle;rounded=0;orthogonalLoop=1;jettySize=auto;html=1;exitX=1;exitY=0.5;exitDx=0;exitDy=0;entryX=0;entryY=0.25;entryDx=0;entryDy=0;strokeWidth=0.5;endArrow=open;endFill=0;" parent="1" source="48cEqnXPvh0Omz0v4jSy-2" target="48cEqnXPvh0Omz0v4jSy-22" edge="1">
          <mxGeometry relative="1" as="geometry" />
        </mxCell>
        <mxCell id="48cEqnXPvh0Omz0v4jSy-28" style="edgeStyle=orthogonalEdgeStyle;rounded=0;orthogonalLoop=1;jettySize=auto;html=1;exitX=1;exitY=0.5;exitDx=0;exitDy=0;entryX=0;entryY=0.75;entryDx=0;entryDy=0;strokeWidth=0.5;endArrow=open;endFill=0;" parent="1" source="48cEqnXPvh0Omz0v4jSy-5" target="48cEqnXPvh0Omz0v4jSy-22" edge="1">
          <mxGeometry relative="1" as="geometry" />
        </mxCell>
        <mxCell id="48cEqnXPvh0Omz0v4jSy-30" value="" style="group;" parent="1" vertex="1" connectable="0">
          <mxGeometry x="478" y="429" width="84" height="92.56" as="geometry" />
        </mxCell>
        <mxCell id="48cEqnXPvh0Omz0v4jSy-31" value="&lt;br style=&quot;font-size: 9px;&quot;&gt;&lt;br style=&quot;font-size: 9px;&quot;&gt;&lt;br style=&quot;font-size: 9px;&quot;&gt;&lt;br&gt;Snappy&lt;br&gt;Redis Cache" style="rounded=1;whiteSpace=wrap;html=1;fontSize=9;strokeWidth=0.5;glass=0;arcSize=4;" parent="48cEqnXPvh0Omz0v4jSy-30" vertex="1">
          <mxGeometry width="84" height="92.56" as="geometry" />
        </mxCell>
        <mxCell id="48cEqnXPvh0Omz0v4jSy-57" value="" style="image;sketch=0;aspect=fixed;html=1;points=[];align=center;fontSize=12;image=img/lib/mscae/Cache_Redis_Product.svg;" parent="48cEqnXPvh0Omz0v4jSy-30" vertex="1">
          <mxGeometry x="25" y="20" width="34" height="28.56" as="geometry" />
        </mxCell>
        <mxCell id="48cEqnXPvh0Omz0v4jSy-33" value="" style="group;" parent="1" vertex="1" connectable="0">
          <mxGeometry x="573" y="430" width="84" height="92.56" as="geometry" />
        </mxCell>
        <mxCell id="48cEqnXPvh0Omz0v4jSy-34" value="&lt;br style=&quot;font-size: 9px;&quot;&gt;&lt;br style=&quot;font-size: 9px;&quot;&gt;&lt;br style=&quot;font-size: 9px;&quot;&gt;&lt;br&gt;Storage&lt;br&gt;Container" style="rounded=1;whiteSpace=wrap;html=1;fontSize=9;strokeWidth=0.5;glass=0;arcSize=4;" parent="48cEqnXPvh0Omz0v4jSy-33" vertex="1">
          <mxGeometry width="84" height="92.56" as="geometry" />
        </mxCell>
        <mxCell id="48cEqnXPvh0Omz0v4jSy-36" value="" style="verticalLabelPosition=bottom;html=1;verticalAlign=top;align=center;shape=mxgraph.azure.storage_blob;" parent="48cEqnXPvh0Omz0v4jSy-33" vertex="1">
          <mxGeometry x="27" y="20.779999999999973" width="30" height="27" as="geometry" />
        </mxCell>
        <mxCell id="48cEqnXPvh0Omz0v4jSy-37" value="" style="group;" parent="1" vertex="1" connectable="0">
          <mxGeometry x="481" y="124" width="84" height="92.56" as="geometry" />
        </mxCell>
        <mxCell id="48cEqnXPvh0Omz0v4jSy-38" value="&lt;br style=&quot;font-size: 9px;&quot;&gt;&lt;br style=&quot;font-size: 9px;&quot;&gt;&lt;br style=&quot;font-size: 9px;&quot;&gt;&lt;br&gt;Authentication&lt;br&gt;Service" style="rounded=1;whiteSpace=wrap;html=1;fontSize=9;strokeWidth=0.5;glass=0;arcSize=4;" parent="48cEqnXPvh0Omz0v4jSy-37" vertex="1">
          <mxGeometry width="84" height="92.56" as="geometry" />
        </mxCell>
        <mxCell id="xJpj-T-V7SrNM7Lm3HIL-10" value="" style="sketch=0;points=[[0,0,0],[0.25,0,0],[0.5,0,0],[0.75,0,0],[1,0,0],[0,1,0],[0.25,1,0],[0.5,1,0],[0.75,1,0],[1,1,0],[0,0.25,0],[0,0.5,0],[0,0.75,0],[1,0.25,0],[1,0.5,0],[1,0.75,0]];outlineConnect=0;fontColor=#232F3E;fillColor=#ED7100;strokeColor=#ffffff;dashed=0;verticalLabelPosition=bottom;verticalAlign=top;align=center;html=1;fontSize=12;fontStyle=0;aspect=fixed;shape=mxgraph.aws4.resourceIcon;resIcon=mxgraph.aws4.ec2;hachureGap=4;jiggle=2;curveFitting=1;fontFamily=Architects Daughter;fontSource=https%3A%2F%2Ffonts.googleapis.com%2Fcss%3Ffamily%3DArchitects%2BDaughter;" vertex="1" parent="48cEqnXPvh0Omz0v4jSy-37">
          <mxGeometry x="24.5" y="14" width="35" height="35" as="geometry" />
        </mxCell>
        <mxCell id="48cEqnXPvh0Omz0v4jSy-41" value="" style="group;" parent="1" vertex="1" connectable="0">
          <mxGeometry x="573" y="125" width="84" height="92.56" as="geometry" />
        </mxCell>
        <mxCell id="48cEqnXPvh0Omz0v4jSy-42" value="&lt;br style=&quot;font-size: 9px;&quot;&gt;&lt;br style=&quot;font-size: 9px;&quot;&gt;&lt;br style=&quot;font-size: 9px;&quot;&gt;&lt;br&gt;Email &lt;br&gt;Service" style="rounded=1;whiteSpace=wrap;html=1;fontSize=9;strokeWidth=0.5;glass=0;arcSize=4;" parent="48cEqnXPvh0Omz0v4jSy-41" vertex="1">
          <mxGeometry width="84" height="92.56" as="geometry" />
        </mxCell>
        <mxCell id="xJpj-T-V7SrNM7Lm3HIL-9" value="" style="sketch=0;points=[[0,0,0],[0.25,0,0],[0.5,0,0],[0.75,0,0],[1,0,0],[0,1,0],[0.25,1,0],[0.5,1,0],[0.75,1,0],[1,1,0],[0,0.25,0],[0,0.5,0],[0,0.75,0],[1,0.25,0],[1,0.5,0],[1,0.75,0]];outlineConnect=0;fontColor=#232F3E;fillColor=#ED7100;strokeColor=#ffffff;dashed=0;verticalLabelPosition=bottom;verticalAlign=top;align=center;html=1;fontSize=12;fontStyle=0;aspect=fixed;shape=mxgraph.aws4.resourceIcon;resIcon=mxgraph.aws4.ec2;hachureGap=4;jiggle=2;curveFitting=1;fontFamily=Architects Daughter;fontSource=https%3A%2F%2Ffonts.googleapis.com%2Fcss%3Ffamily%3DArchitects%2BDaughter;" vertex="1" parent="48cEqnXPvh0Omz0v4jSy-41">
          <mxGeometry x="24.5" y="12.780000000000001" width="35" height="35" as="geometry" />
        </mxCell>
        <mxCell id="48cEqnXPvh0Omz0v4jSy-44" style="edgeStyle=orthogonalEdgeStyle;rounded=0;orthogonalLoop=1;jettySize=auto;html=1;exitX=0.25;exitY=0;exitDx=0;exitDy=0;entryX=0.5;entryY=1;entryDx=0;entryDy=0;strokeWidth=0.5;endArrow=open;endFill=0;" parent="1" source="48cEqnXPvh0Omz0v4jSy-19" target="48cEqnXPvh0Omz0v4jSy-38" edge="1">
          <mxGeometry relative="1" as="geometry" />
        </mxCell>
        <mxCell id="48cEqnXPvh0Omz0v4jSy-45" style="edgeStyle=orthogonalEdgeStyle;rounded=0;orthogonalLoop=1;jettySize=auto;html=1;exitX=0.5;exitY=0;exitDx=0;exitDy=0;entryX=0.5;entryY=1;entryDx=0;entryDy=0;strokeWidth=0.5;endArrow=open;endFill=0;" parent="1" source="48cEqnXPvh0Omz0v4jSy-19" target="48cEqnXPvh0Omz0v4jSy-42" edge="1">
          <mxGeometry relative="1" as="geometry" />
        </mxCell>
        <mxCell id="48cEqnXPvh0Omz0v4jSy-47" style="edgeStyle=orthogonalEdgeStyle;rounded=0;orthogonalLoop=1;jettySize=auto;html=1;exitX=0.75;exitY=0;exitDx=0;exitDy=0;entryX=0.5;entryY=1;entryDx=0;entryDy=0;strokeWidth=0.5;endArrow=open;endFill=0;" parent="1" source="48cEqnXPvh0Omz0v4jSy-19" target="48cEqnXPvh0Omz0v4jSy-12" edge="1">
          <mxGeometry relative="1" as="geometry" />
        </mxCell>
        <mxCell id="48cEqnXPvh0Omz0v4jSy-48" style="edgeStyle=orthogonalEdgeStyle;rounded=0;orthogonalLoop=1;jettySize=auto;html=1;exitX=1;exitY=0.25;exitDx=0;exitDy=0;entryX=0;entryY=0.25;entryDx=0;entryDy=0;strokeWidth=0.5;endArrow=open;endFill=0;flowAnimation=1;" parent="1" source="48cEqnXPvh0Omz0v4jSy-22" target="48cEqnXPvh0Omz0v4jSy-19" edge="1">
          <mxGeometry relative="1" as="geometry" />
        </mxCell>
        <mxCell id="48cEqnXPvh0Omz0v4jSy-49" style="edgeStyle=orthogonalEdgeStyle;rounded=0;orthogonalLoop=1;jettySize=auto;html=1;exitX=0;exitY=0.75;exitDx=0;exitDy=0;entryX=1;entryY=0.75;entryDx=0;entryDy=0;strokeWidth=0.5;endArrow=open;endFill=0;flowAnimation=1;" parent="1" source="48cEqnXPvh0Omz0v4jSy-19" target="48cEqnXPvh0Omz0v4jSy-22" edge="1">
          <mxGeometry relative="1" as="geometry" />
        </mxCell>
        <mxCell id="48cEqnXPvh0Omz0v4jSy-51" value="" style="group;" parent="1" vertex="1" connectable="0">
          <mxGeometry x="701" y="275" width="84" height="92.56" as="geometry" />
        </mxCell>
        <mxCell id="48cEqnXPvh0Omz0v4jSy-52" value="&lt;br style=&quot;font-size: 9px;&quot;&gt;&lt;br style=&quot;font-size: 9px;&quot;&gt;&lt;br style=&quot;font-size: 9px;&quot;&gt;&lt;br&gt;Snapay&lt;br&gt;Database" style="rounded=1;whiteSpace=wrap;html=1;fontSize=9;strokeWidth=0.5;glass=0;arcSize=4;" parent="48cEqnXPvh0Omz0v4jSy-51" vertex="1">
          <mxGeometry width="84" height="92.56" as="geometry" />
        </mxCell>
        <mxCell id="48cEqnXPvh0Omz0v4jSy-56" value="" style="verticalLabelPosition=bottom;html=1;verticalAlign=top;align=center;shape=mxgraph.azure.database;fontSize=8;" parent="48cEqnXPvh0Omz0v4jSy-51" vertex="1">
          <mxGeometry x="29.360000000000014" y="12" width="25.27" height="33.84" as="geometry" />
        </mxCell>
        <mxCell id="48cEqnXPvh0Omz0v4jSy-54" style="edgeStyle=orthogonalEdgeStyle;rounded=0;orthogonalLoop=1;jettySize=auto;html=1;exitX=1;exitY=0.25;exitDx=0;exitDy=0;entryX=0;entryY=0.25;entryDx=0;entryDy=0;strokeWidth=0.5;endArrow=open;endFill=0;flowAnimation=1;" parent="1" source="48cEqnXPvh0Omz0v4jSy-19" target="48cEqnXPvh0Omz0v4jSy-52" edge="1">
          <mxGeometry relative="1" as="geometry" />
        </mxCell>
        <mxCell id="48cEqnXPvh0Omz0v4jSy-55" style="edgeStyle=orthogonalEdgeStyle;rounded=0;orthogonalLoop=1;jettySize=auto;html=1;exitX=0;exitY=0.75;exitDx=0;exitDy=0;entryX=1;entryY=0.75;entryDx=0;entryDy=0;strokeWidth=0.5;endArrow=open;endFill=0;flowAnimation=1;" parent="1" source="48cEqnXPvh0Omz0v4jSy-52" target="48cEqnXPvh0Omz0v4jSy-19" edge="1">
          <mxGeometry relative="1" as="geometry" />
        </mxCell>
        <mxCell id="48cEqnXPvh0Omz0v4jSy-58" style="edgeStyle=orthogonalEdgeStyle;rounded=0;orthogonalLoop=1;jettySize=auto;html=1;exitX=0.25;exitY=1;exitDx=0;exitDy=0;entryX=0.5;entryY=0;entryDx=0;entryDy=0;strokeWidth=0.5;endArrow=open;endFill=0;" parent="1" source="48cEqnXPvh0Omz0v4jSy-19" target="48cEqnXPvh0Omz0v4jSy-31" edge="1">
          <mxGeometry relative="1" as="geometry" />
        </mxCell>
        <mxCell id="48cEqnXPvh0Omz0v4jSy-59" style="edgeStyle=orthogonalEdgeStyle;rounded=0;orthogonalLoop=1;jettySize=auto;html=1;exitX=0.5;exitY=1;exitDx=0;exitDy=0;entryX=0.5;entryY=0;entryDx=0;entryDy=0;strokeWidth=0.5;endArrow=open;endFill=0;" parent="1" source="48cEqnXPvh0Omz0v4jSy-19" target="48cEqnXPvh0Omz0v4jSy-34" edge="1">
          <mxGeometry relative="1" as="geometry" />
        </mxCell>
        <mxCell id="48cEqnXPvh0Omz0v4jSy-60" style="edgeStyle=orthogonalEdgeStyle;rounded=0;orthogonalLoop=1;jettySize=auto;html=1;exitX=0.75;exitY=1;exitDx=0;exitDy=0;entryX=0.5;entryY=0;entryDx=0;entryDy=0;strokeWidth=0.5;endArrow=open;endFill=0;" parent="1" source="48cEqnXPvh0Omz0v4jSy-19" target="48cEqnXPvh0Omz0v4jSy-15" edge="1">
          <mxGeometry relative="1" as="geometry" />
        </mxCell>
        <mxCell id="48cEqnXPvh0Omz0v4jSy-61" value="" style="group;" parent="1" vertex="1" connectable="0">
          <mxGeometry x="1016" y="146" width="75.98000000000002" height="82.5" as="geometry" />
        </mxCell>
        <mxCell id="48cEqnXPvh0Omz0v4jSy-62" value="&lt;br&gt;&lt;br&gt;&lt;br&gt;&lt;br&gt;&lt;br&gt;Admin&lt;br&gt;User" style="rounded=1;whiteSpace=wrap;html=1;fontSize=8;strokeWidth=0.1;imageWidth=24;arcSize=4;" parent="48cEqnXPvh0Omz0v4jSy-61" vertex="1">
          <mxGeometry x="-1" width="75.98" height="82.5" as="geometry" />
        </mxCell>
        <mxCell id="xJpj-T-V7SrNM7Lm3HIL-22" value="" style="aspect=fixed;sketch=0;html=1;dashed=0;whitespace=wrap;fillColor=#2875E2;strokeColor=#ffffff;points=[[0.005,0.63,0],[0.1,0.2,0],[0.9,0.2,0],[0.5,0,0],[0.995,0.63,0],[0.72,0.99,0],[0.5,1,0],[0.28,0.99,0]];shape=mxgraph.kubernetes.icon2;prIcon=user;hachureGap=4;jiggle=2;curveFitting=1;fontFamily=Architects Daughter;fontSource=https%3A%2F%2Ffonts.googleapis.com%2Fcss%3Ffamily%3DArchitects%2BDaughter;" vertex="1" parent="48cEqnXPvh0Omz0v4jSy-61">
          <mxGeometry x="24.49000000000001" y="11.319999999999993" width="27" height="25.92" as="geometry" />
        </mxCell>
        <mxCell id="48cEqnXPvh0Omz0v4jSy-64" value="" style="group;" parent="1" vertex="1" connectable="0">
          <mxGeometry x="1011" y="275" width="84" height="92.56" as="geometry" />
        </mxCell>
        <mxCell id="48cEqnXPvh0Omz0v4jSy-65" value="&lt;br style=&quot;font-size: 9px;&quot;&gt;&lt;br style=&quot;font-size: 9px;&quot;&gt;&lt;br style=&quot;font-size: 9px;&quot;&gt;&lt;br&gt;Snapay Backoffice&lt;br&gt;UI Service" style="rounded=1;whiteSpace=wrap;html=1;fontSize=9;strokeWidth=0.5;glass=0;arcSize=4;" parent="48cEqnXPvh0Omz0v4jSy-64" vertex="1">
          <mxGeometry width="84" height="92.56" as="geometry" />
        </mxCell>
        <mxCell id="xJpj-T-V7SrNM7Lm3HIL-16" value="" style="image;sketch=0;aspect=fixed;html=1;points=[];align=center;fontSize=12;image=img/lib/mscae/Managed_Desktop.svg;hachureGap=4;jiggle=2;curveFitting=1;fontFamily=Architects Daughter;fontSource=https%3A%2F%2Ffonts.googleapis.com%2Fcss%3Ffamily%3DArchitects%2BDaughter;" vertex="1" parent="48cEqnXPvh0Omz0v4jSy-64">
          <mxGeometry x="19.5" y="10.839999999999975" width="45" height="32.4" as="geometry" />
        </mxCell>
        <mxCell id="48cEqnXPvh0Omz0v4jSy-71" value="" style="group;" parent="1" vertex="1" connectable="0">
          <mxGeometry x="847" y="275" width="84" height="92.56" as="geometry" />
        </mxCell>
        <mxCell id="48cEqnXPvh0Omz0v4jSy-72" value="&lt;br style=&quot;font-size: 9px;&quot;&gt;&lt;br style=&quot;font-size: 9px;&quot;&gt;&lt;br style=&quot;font-size: 9px;&quot;&gt;&lt;br&gt;Snapay Backoffice&lt;br&gt;API Service" style="rounded=1;whiteSpace=wrap;html=1;fontSize=9;strokeWidth=0.5;glass=0;arcSize=4;" parent="48cEqnXPvh0Omz0v4jSy-71" vertex="1">
          <mxGeometry width="84" height="92.56" as="geometry" />
        </mxCell>
        <mxCell id="xJpj-T-V7SrNM7Lm3HIL-11" value="" style="sketch=0;points=[[0,0,0],[0.25,0,0],[0.5,0,0],[0.75,0,0],[1,0,0],[0,1,0],[0.25,1,0],[0.5,1,0],[0.75,1,0],[1,1,0],[0,0.25,0],[0,0.5,0],[0,0.75,0],[1,0.25,0],[1,0.5,0],[1,0.75,0]];outlineConnect=0;fontColor=#232F3E;fillColor=#ED7100;strokeColor=#ffffff;dashed=0;verticalLabelPosition=bottom;verticalAlign=top;align=center;html=1;fontSize=12;fontStyle=0;aspect=fixed;shape=mxgraph.aws4.resourceIcon;resIcon=mxgraph.aws4.ec2;hachureGap=4;jiggle=2;curveFitting=1;fontFamily=Architects Daughter;fontSource=https%3A%2F%2Ffonts.googleapis.com%2Fcss%3Ffamily%3DArchitects%2BDaughter;" vertex="1" parent="48cEqnXPvh0Omz0v4jSy-71">
          <mxGeometry x="24.5" y="10.840000000000032" width="35" height="35" as="geometry" />
        </mxCell>
        <mxCell id="48cEqnXPvh0Omz0v4jSy-74" style="edgeStyle=orthogonalEdgeStyle;rounded=0;orthogonalLoop=1;jettySize=auto;html=1;exitX=1;exitY=0.25;exitDx=0;exitDy=0;entryX=0;entryY=0.25;entryDx=0;entryDy=0;endArrow=open;endFill=0;strokeWidth=0.5;" parent="1" source="48cEqnXPvh0Omz0v4jSy-52" target="48cEqnXPvh0Omz0v4jSy-72" edge="1">
          <mxGeometry relative="1" as="geometry" />
        </mxCell>
        <mxCell id="48cEqnXPvh0Omz0v4jSy-75" style="edgeStyle=orthogonalEdgeStyle;rounded=0;orthogonalLoop=1;jettySize=auto;html=1;exitX=0;exitY=0.75;exitDx=0;exitDy=0;entryX=1;entryY=0.75;entryDx=0;entryDy=0;endArrow=open;endFill=0;strokeWidth=0.5;" parent="1" source="48cEqnXPvh0Omz0v4jSy-72" target="48cEqnXPvh0Omz0v4jSy-52" edge="1">
          <mxGeometry relative="1" as="geometry" />
        </mxCell>
        <mxCell id="48cEqnXPvh0Omz0v4jSy-76" style="edgeStyle=orthogonalEdgeStyle;rounded=0;orthogonalLoop=1;jettySize=auto;html=1;exitX=1;exitY=0.25;exitDx=0;exitDy=0;entryX=0;entryY=0.25;entryDx=0;entryDy=0;endArrow=open;endFill=0;strokeWidth=0.5;" parent="1" source="48cEqnXPvh0Omz0v4jSy-72" target="48cEqnXPvh0Omz0v4jSy-65" edge="1">
          <mxGeometry relative="1" as="geometry" />
        </mxCell>
        <mxCell id="48cEqnXPvh0Omz0v4jSy-77" style="edgeStyle=orthogonalEdgeStyle;rounded=0;orthogonalLoop=1;jettySize=auto;html=1;exitX=0;exitY=0.75;exitDx=0;exitDy=0;entryX=1;entryY=0.75;entryDx=0;entryDy=0;endArrow=open;endFill=0;strokeWidth=0.5;" parent="1" source="48cEqnXPvh0Omz0v4jSy-65" target="48cEqnXPvh0Omz0v4jSy-72" edge="1">
          <mxGeometry relative="1" as="geometry" />
        </mxCell>
        <mxCell id="48cEqnXPvh0Omz0v4jSy-81" value="1" style="ellipse;whiteSpace=wrap;html=1;aspect=fixed;fontSize=8;strokeWidth=0.5;" parent="1" vertex="1">
          <mxGeometry x="380" y="369" width="12" height="12" as="geometry" />
        </mxCell>
        <mxCell id="48cEqnXPvh0Omz0v4jSy-82" value="1" style="ellipse;whiteSpace=wrap;html=1;aspect=fixed;fontSize=8;strokeWidth=0.5;" parent="1" vertex="1">
          <mxGeometry x="380" y="247" width="12" height="12" as="geometry" />
        </mxCell>
        <mxCell id="48cEqnXPvh0Omz0v4jSy-83" value="2" style="ellipse;whiteSpace=wrap;html=1;aspect=fixed;fontSize=8;strokeWidth=0.5;" parent="1" vertex="1">
          <mxGeometry x="540" y="315.28" width="12" height="12" as="geometry" />
        </mxCell>
        <mxCell id="48cEqnXPvh0Omz0v4jSy-84" value="4" style="ellipse;whiteSpace=wrap;html=1;aspect=fixed;fontSize=8;strokeWidth=0.5;" parent="1" vertex="1">
          <mxGeometry x="673" y="315.28" width="12" height="12" as="geometry" />
        </mxCell>
        <mxCell id="48cEqnXPvh0Omz0v4jSy-85" value="7" style="ellipse;whiteSpace=wrap;html=1;aspect=fixed;fontSize=8;strokeWidth=0.5;" parent="1" vertex="1">
          <mxGeometry x="685" y="225.99999999999997" width="12" height="12" as="geometry" />
        </mxCell>
        <mxCell id="48cEqnXPvh0Omz0v4jSy-89" value="5" style="ellipse;whiteSpace=wrap;html=1;aspect=fixed;fontSize=8;strokeWidth=0.5;" parent="1" vertex="1">
          <mxGeometry x="597" y="225.99999999999997" width="12" height="12" as="geometry" />
        </mxCell>
        <mxCell id="48cEqnXPvh0Omz0v4jSy-90" value="3" style="ellipse;whiteSpace=wrap;html=1;aspect=fixed;fontSize=8;strokeWidth=0.5;" parent="1" vertex="1">
          <mxGeometry x="533" y="225.99999999999997" width="12" height="12" as="geometry" />
        </mxCell>
        <mxCell id="48cEqnXPvh0Omz0v4jSy-91" value="6" style="ellipse;whiteSpace=wrap;html=1;aspect=fixed;fontSize=8;strokeWidth=0.5;" parent="1" vertex="1">
          <mxGeometry x="528" y="406" width="12" height="12" as="geometry" />
        </mxCell>
        <mxCell id="48cEqnXPvh0Omz0v4jSy-92" value="6" style="ellipse;whiteSpace=wrap;html=1;aspect=fixed;fontSize=8;strokeWidth=0.5;" parent="1" vertex="1">
          <mxGeometry x="622" y="406" width="12" height="12" as="geometry" />
        </mxCell>
        <mxCell id="48cEqnXPvh0Omz0v4jSy-94" value="7" style="ellipse;whiteSpace=wrap;html=1;aspect=fixed;fontSize=8;strokeWidth=0.5;" parent="1" vertex="1">
          <mxGeometry x="716" y="406" width="12" height="12" as="geometry" />
        </mxCell>
        <mxCell id="48cEqnXPvh0Omz0v4jSy-96" value="1" style="ellipse;whiteSpace=wrap;html=1;aspect=fixed;fontSize=8;strokeWidth=0.5;" parent="1" vertex="1">
          <mxGeometry x="999" y="397" width="12" height="12" as="geometry" />
        </mxCell>
        <mxCell id="48cEqnXPvh0Omz0v4jSy-97" value="3" style="ellipse;whiteSpace=wrap;html=1;aspect=fixed;fontSize=8;strokeWidth=0.5;" parent="1" vertex="1">
          <mxGeometry x="947" y="314" width="12" height="12" as="geometry" />
        </mxCell>
        <mxCell id="48cEqnXPvh0Omz0v4jSy-98" value="4" style="ellipse;whiteSpace=wrap;html=1;aspect=fixed;fontSize=8;strokeWidth=0.5;" parent="1" vertex="1">
          <mxGeometry x="817" y="315.28" width="12" height="12" as="geometry" />
        </mxCell>
        <mxCell id="xJpj-T-V7SrNM7Lm3HIL-21" style="edgeStyle=orthogonalEdgeStyle;rounded=0;hachureGap=4;orthogonalLoop=1;jettySize=auto;html=1;entryX=0.5;entryY=0;entryDx=0;entryDy=0;fontFamily=Architects Daughter;fontSource=https%3A%2F%2Ffonts.googleapis.com%2Fcss%3Ffamily%3DArchitects%2BDaughter;" edge="1" parent="1" source="48cEqnXPvh0Omz0v4jSy-62" target="48cEqnXPvh0Omz0v4jSy-65">
          <mxGeometry relative="1" as="geometry" />
        </mxCell>
      </root>
    </mxGraphModel>
  </diagram>
</mxfile>
